<?xml version="1.0" encoding="UTF-8" standalone="no"?>
<!DOCTYPE svg PUBLIC "-//W3C//DTD SVG 1.1//EN"
 "http://www.w3.org/Graphics/SVG/1.1/DTD/svg11.dtd">
<!-- Generated by graphviz version 12.2.1 (20241206.2353)
 -->
<!-- Title: AppStorageDataflow Pages: 1 -->
<svg width="307pt" height="475pt"
 viewBox="0.00 0.00 306.99 474.50" xmlns="http://www.w3.org/2000/svg" xmlns:xlink="http://www.w3.org/1999/xlink">
<g id="graph0" class="graph" transform="scale(1 1) rotate(0) translate(4 470.5)">
<title>AppStorageDataflow</title>
<polygon fill="white" stroke="none" points="-4,4 -4,-470.5 302.99,-470.5 302.99,4 -4,4"/>
<!-- Index -->
<g id="node1" class="node">
<title>Index</title>
<path fill="#f7f7fb" stroke="#4c4c4c" d="M251.7,-466.5C251.7,-466.5 159.2,-466.5 159.2,-466.5 153.2,-466.5 147.2,-460.5 147.2,-454.5 147.2,-454.5 147.2,-433 147.2,-433 147.2,-427 153.2,-421 159.2,-421 159.2,-421 251.7,-421 251.7,-421 257.7,-421 263.7,-427 263.7,-433 263.7,-433 263.7,-454.5 263.7,-454.5 263.7,-460.5 257.7,-466.5 251.7,-466.5"/>
<text text-anchor="middle" x="205.45" y="-449.2" font-family="Microsoft YaHei" font-size="14.00">Index</text>
<text text-anchor="middle" x="205.45" y="-430.45" font-family="Microsoft YaHei" font-size="14.00">(入口页面/导航)</text>
</g>
<!-- AppStorage -->
<g id="node2" class="node">
<title>AppStorage</title>
<path fill="#e8f2ff" stroke="#2f6fed" d="M208.07,-347.5C208.07,-347.5 72.82,-347.5 72.82,-347.5 66.82,-347.5 60.82,-341.5 60.82,-335.5 60.82,-335.5 60.82,-314 60.82,-314 60.82,-308 66.82,-302 72.82,-302 72.82,-302 208.07,-302 208.07,-302 214.07,-302 220.07,-308 220.07,-314 220.07,-314 220.07,-335.5 220.07,-335.5 220.07,-341.5 214.07,-347.5 208.07,-347.5"/>
<text text-anchor="middle" x="140.45" y="-330.2" font-family="Microsoft YaHei" font-size="14.00">AppStorage</text>
<text text-anchor="middle" x="140.45" y="-311.45" font-family="Microsoft YaHei" font-size="14.00">(全局状态/持久化桥接)</text>
</g>
<!-- Index&#45;&gt;AppStorage -->
<g id="edge1" class="edge">
<title>Index&#45;&gt;AppStorage</title>
<path fill="none" stroke="#6b6b6b" d="M157.34,-420.51C151.1,-415.61 145.55,-409.81 141.7,-403 133.95,-389.3 133.04,-371.94 134.33,-357.14"/>
<polygon fill="#6b6b6b" stroke="#6b6b6b" points="137.09,-357.64 135.27,-349.36 131.53,-356.97 137.09,-357.64"/>
<text text-anchor="middle" x="199.07" y="-389.7" font-family="Microsoft YaHei" font-size="14.00">读/写全局状态</text>
<text text-anchor="middle" x="199.07" y="-370.95" font-family="Microsoft YaHei" font-size="14.00">(初始化/路由触发)</text>
</g>
<!-- Pages -->
<g id="node3" class="node">
<title>Pages</title>
<path fill="#f7f7fb" stroke="none" d="M255.45,-228.5C255.45,-228.5 41.45,-228.5 41.45,-228.5 35.45,-228.5 29.45,-222.5 29.45,-216.5 29.45,-216.5 29.45,-12 29.45,-12 29.45,-6 35.45,0 41.45,0 41.45,0 255.45,0 255.45,0 261.45,0 267.45,-6 267.45,-12 267.45,-12 267.45,-216.5 267.45,-216.5 267.45,-222.5 261.45,-228.5 255.45,-228.5"/>
<polygon fill="#f7f7fb" stroke="none" points="37.45,-187.75 37.45,-224.5 259.45,-224.5 259.45,-187.75 37.45,-187.75"/>
<polygon fill="none" stroke="#4c4c4c" points="37.45,-187.75 37.45,-224.5 259.45,-224.5 259.45,-187.75 37.45,-187.75"/>
<text text-anchor="start" x="92.2" y="-203.2" font-family="Microsoft YaHei" font-weight="bold" font-size="14.00">各页面（Pages）</text>
<polygon fill="none" stroke="#4c4c4c" points="37.45,-151 37.45,-187.75 259.45,-187.75 259.45,-151 37.45,-151"/>
<text text-anchor="start" x="46.45" y="-165.45" font-family="Microsoft YaHei" font-size="14.00">推荐页 TodayRecommendPage</text>
<polygon fill="none" stroke="#4c4c4c" points="37.45,-114.25 37.45,-151 259.45,-151 259.45,-114.25 37.45,-114.25"/>
<text text-anchor="start" x="46.45" y="-128.7" font-family="Microsoft YaHei" font-size="14.00">菜品页 FoodListPage</text>
<polygon fill="none" stroke="#4c4c4c" points="37.45,-77.5 37.45,-114.25 259.45,-114.25 259.45,-77.5 37.45,-77.5"/>
<text text-anchor="start" x="46.45" y="-91.95" font-family="Microsoft YaHei" font-size="14.00">历史页 HistoryPage</text>
<polygon fill="none" stroke="#4c4c4c" points="37.45,-40.75 37.45,-77.5 259.45,-77.5 259.45,-40.75 37.45,-40.75"/>
<text text-anchor="start" x="46.45" y="-55.2" font-family="Microsoft YaHei" font-size="14.00">统计页 StatsPage</text>
<polygon fill="none" stroke="#4c4c4c" points="37.45,-4 37.45,-40.75 259.45,-40.75 259.45,-4 37.45,-4"/>
<text text-anchor="start" x="46.45" y="-18.45" font-family="Microsoft YaHei" font-size="14.00">设置页 SettingsPage</text>
</g>
<!-- Index&#45;&gt;Pages -->
<g id="edge4" class="edge">
<title>Index&#45;&gt;Pages</title>
<path fill="none" stroke="#6b6b6b" stroke-dasharray="5,2" d="M242.65,-420.57C248.23,-415.52 253.2,-409.66 256.45,-403 267.2,-380.98 283.17,-327.93 253.45,-246.5 252.25,-243.22 250.94,-239.97 249.52,-236.74"/>
<polygon fill="#6b6b6b" stroke="#6b6b6b" points="252.11,-235.67 246.18,-229.61 247.04,-238.05 252.11,-235.67"/>
<text text-anchor="middle" x="284.74" y="-320.82" font-family="Microsoft YaHei" font-size="14.00">导航</text>
</g>
<!-- AppStorage&#45;&gt;Pages -->
<g id="edge2" class="edge">
<title>AppStorage&#45;&gt;Pages</title>
<path fill="none" stroke="#6b6b6b" d="M60.62,-317.26C39.73,-311.5 19.44,-301.4 6.45,-284 -3.52,-270.64 -0.23,-261.77 6.45,-246.5 11.07,-235.94 17,-225.86 23.81,-216.31"/>
<polygon fill="#6b6b6b" stroke="#6b6b6b" points="26,-218.06 28.55,-209.98 21.51,-214.7 26,-218.06"/>
<text text-anchor="middle" x="66.45" y="-261.32" font-family="Microsoft YaHei" font-size="14.00">状态下发/订阅更新</text>
</g>
<!-- Pages&#45;&gt;AppStorage -->
<g id="edge3" class="edge">
<title>Pages&#45;&gt;AppStorage</title>
<path fill="none" stroke="#6b6b6b" d="M144.12,-228.05C143.21,-251.85 142.32,-275.06 141.64,-292.66"/>
<polygon fill="#6b6b6b" stroke="#6b6b6b" points="138.86,-292.22 141.35,-300.32 144.45,-292.43 138.86,-292.22"/>
<text text-anchor="middle" x="196.51" y="-270.7" font-family="Microsoft YaHei" font-size="14.00">用户操作→回写</text>
<text text-anchor="middle" x="196.51" y="-251.95" font-family="Microsoft YaHei" font-size="14.00">(偏好/历史/菜品)</text>
</g>
</g>
</svg>
