<?xml version="1.0" encoding="UTF-8" standalone="no"?>
<!DOCTYPE svg PUBLIC "-//W3C//DTD SVG 1.1//EN"
 "http://www.w3.org/Graphics/SVG/1.1/DTD/svg11.dtd">
<!-- Generated by graphviz version 12.2.1 (20241206.2353)
 -->
<!-- Title: LoginFlow Pages: 1 -->
<svg width="940pt" height="942pt"
 viewBox="0.00 0.00 940.38 941.50" xmlns="http://www.w3.org/2000/svg" xmlns:xlink="http://www.w3.org/1999/xlink">
<g id="graph0" class="graph" transform="scale(1 1) rotate(0) translate(4 937.5)">
<title>LoginFlow</title>
<polygon fill="white" stroke="none" points="-4,4 -4,-937.5 936.38,-937.5 936.38,4 -4,4"/>
<text text-anchor="middle" x="466.19" y="-916.2" font-family="Microsoft YaHei" font-size="14.00">食刻选择｜登录流程图</text>
<!-- Start -->
<g id="node1" class="node">
<title>Start</title>
<path fill="#f7f7fb" stroke="#4c4c4c" d="M190.75,-906.75C190.75,-906.75 69,-906.75 69,-906.75 63,-906.75 57,-900.75 57,-894.75 57,-894.75 57,-873.25 57,-873.25 57,-867.25 63,-861.25 69,-861.25 69,-861.25 190.75,-861.25 190.75,-861.25 196.75,-861.25 202.75,-867.25 202.75,-873.25 202.75,-873.25 202.75,-894.75 202.75,-894.75 202.75,-900.75 196.75,-906.75 190.75,-906.75"/>
<text text-anchor="middle" x="129.88" y="-889.45" font-family="Microsoft YaHei" font-size="14.00">应用启动</text>
<text text-anchor="middle" x="129.88" y="-870.7" font-family="Microsoft YaHei" font-size="14.00">(EntryAbility/Index)</text>
</g>
<!-- IndexInit -->
<g id="node2" class="node">
<title>IndexInit</title>
<path fill="#f7f7fb" stroke="#4c4c4c" d="M247.75,-824.25C247.75,-824.25 12,-824.25 12,-824.25 6,-824.25 0,-818.25 0,-812.25 0,-812.25 0,-772 0,-772 0,-766 6,-760 12,-760 12,-760 247.75,-760 247.75,-760 253.75,-760 259.75,-766 259.75,-772 259.75,-772 259.75,-812.25 259.75,-812.25 259.75,-818.25 253.75,-824.25 247.75,-824.25"/>
<text text-anchor="middle" x="129.88" y="-806.95" font-family="Microsoft YaHei" font-size="14.00">Index.aboutToAppear()</text>
<text text-anchor="middle" x="129.88" y="-788.2" font-family="Microsoft YaHei" font-size="14.00">初始化 UserManager / FoodStore</text>
<text text-anchor="middle" x="129.88" y="-769.45" font-family="Microsoft YaHei" font-size="14.00">写入 AppStorage(context/foodStore)</text>
</g>
<!-- Start&#45;&gt;IndexInit -->
<g id="edge1" class="edge">
<title>Start&#45;&gt;IndexInit</title>
<path fill="none" stroke="#6b6b6b" d="M129.88,-860.78C129.88,-852.68 129.88,-843.24 129.88,-834.03"/>
<polygon fill="#6b6b6b" stroke="#6b6b6b" points="132.68,-834.09 129.88,-826.09 127.08,-834.09 132.68,-834.09"/>
</g>
<!-- CheckLogin -->
<g id="node3" class="node">
<title>CheckLogin</title>
<path fill="#f7f7fb" stroke="#4c4c4c" d="M220,-723C220,-723 39.75,-723 39.75,-723 33.75,-723 27.75,-717 27.75,-711 27.75,-711 27.75,-699 27.75,-699 27.75,-693 33.75,-687 39.75,-687 39.75,-687 220,-687 220,-687 226,-687 232,-693 232,-699 232,-699 232,-711 232,-711 232,-717 226,-723 220,-723"/>
<text text-anchor="middle" x="129.88" y="-701.08" font-family="Microsoft YaHei" font-size="14.00">UserManager.isLoggedIn() ?</text>
</g>
<!-- IndexInit&#45;&gt;CheckLogin -->
<g id="edge2" class="edge">
<title>IndexInit&#45;&gt;CheckLogin</title>
<path fill="none" stroke="#6b6b6b" d="M129.88,-759.91C129.88,-750.95 129.88,-741.26 129.88,-732.6"/>
<polygon fill="#6b6b6b" stroke="#6b6b6b" points="132.68,-732.87 129.88,-724.87 127.08,-732.87 132.68,-732.87"/>
</g>
<!-- GoHome -->
<g id="node4" class="node">
<title>GoHome</title>
<path fill="#f7f7fb" stroke="#4c4c4c" d="M219.38,-45.5C219.38,-45.5 32.38,-45.5 32.38,-45.5 26.38,-45.5 20.38,-39.5 20.38,-33.5 20.38,-33.5 20.38,-12 20.38,-12 20.38,-6 26.38,0 32.38,0 32.38,0 219.38,0 219.38,0 225.38,0 231.38,-6 231.38,-12 231.38,-12 231.38,-33.5 231.38,-33.5 231.38,-39.5 225.38,-45.5 219.38,-45.5"/>
<text text-anchor="middle" x="125.88" y="-28.2" font-family="Microsoft YaHei" font-size="14.00">进入主页(Index Tab)</text>
<text text-anchor="middle" x="125.88" y="-9.45" font-family="Microsoft YaHei" font-size="14.00">显示推荐/菜品/历史/统计/设置</text>
</g>
<!-- CheckLogin&#45;&gt;GoHome -->
<g id="edge3" class="edge">
<title>CheckLogin&#45;&gt;GoHome</title>
<path fill="none" stroke="#6b6b6b" d="M125.07,-686.57C120.36,-667.91 113.88,-637.34 113.88,-610.5 113.88,-610.5 113.88,-610.5 113.88,-104.25 113.88,-87.91 116.32,-69.9 119.01,-55.07"/>
<polygon fill="#6b6b6b" stroke="#6b6b6b" points="121.74,-55.7 120.5,-47.31 116.24,-54.64 121.74,-55.7"/>
<text text-anchor="middle" x="121" y="-353.95" font-family="Microsoft YaHei" font-size="14.00">是</text>
</g>
<!-- GoLogin -->
<g id="node5" class="node">
<title>GoLogin</title>
<path fill="#fff6e8" stroke="#d98c00" d="M427.12,-632.25C427.12,-632.25 190.62,-632.25 190.62,-632.25 184.62,-632.25 178.62,-626.25 178.62,-620.25 178.62,-620.25 178.62,-598.75 178.62,-598.75 178.62,-592.75 184.62,-586.75 190.62,-586.75 190.62,-586.75 427.12,-586.75 427.12,-586.75 433.12,-586.75 439.12,-592.75 439.12,-598.75 439.12,-598.75 439.12,-620.25 439.12,-620.25 439.12,-626.25 433.12,-632.25 427.12,-632.25"/>
<text text-anchor="middle" x="308.88" y="-614.95" font-family="Microsoft YaHei" font-size="14.00">router.replaceUrl(&#39;pages/LoginPage&#39;)</text>
<text text-anchor="middle" x="308.88" y="-596.2" font-family="Microsoft YaHei" font-size="14.00">跳转登录页</text>
</g>
<!-- CheckLogin&#45;&gt;GoLogin -->
<g id="edge4" class="edge">
<title>CheckLogin&#45;&gt;GoLogin</title>
<path fill="none" stroke="#6b6b6b" d="M163.12,-686.63C189.74,-672.73 227.52,-653 257.94,-637.1"/>
<polygon fill="#6b6b6b" stroke="#6b6b6b" points="259.18,-639.62 264.97,-633.43 256.58,-634.66 259.18,-639.62"/>
<text text-anchor="middle" x="237.22" y="-655.7" font-family="Microsoft YaHei" font-size="14.00">否</text>
</g>
<!-- LoginPage -->
<g id="node6" class="node">
<title>LoginPage</title>
<path fill="#fff6e8" stroke="#d98c00" d="M485.38,-549.75C485.38,-549.75 364.38,-549.75 364.38,-549.75 358.38,-549.75 352.38,-543.75 352.38,-537.75 352.38,-537.75 352.38,-516.25 352.38,-516.25 352.38,-510.25 358.38,-504.25 364.38,-504.25 364.38,-504.25 485.38,-504.25 485.38,-504.25 491.38,-504.25 497.38,-510.25 497.38,-516.25 497.38,-516.25 497.38,-537.75 497.38,-537.75 497.38,-543.75 491.38,-549.75 485.38,-549.75"/>
<text text-anchor="middle" x="424.88" y="-532.45" font-family="Microsoft YaHei" font-size="14.00">LoginPage</text>
<text text-anchor="middle" x="424.88" y="-513.7" font-family="Microsoft YaHei" font-size="14.00">(登录/注册模式切换)</text>
</g>
<!-- GoLogin&#45;&gt;LoginPage -->
<g id="edge5" class="edge">
<title>GoLogin&#45;&gt;LoginPage</title>
<path fill="none" stroke="#6b6b6b" d="M340.88,-586.29C354.7,-576.7 371,-565.39 385.55,-555.29"/>
<polygon fill="#6b6b6b" stroke="#6b6b6b" points="386.76,-557.86 391.73,-551 383.56,-553.26 386.76,-557.86"/>
</g>
<!-- DoLogin -->
<g id="node7" class="node">
<title>DoLogin</title>
<path fill="#fff6e8" stroke="#d98c00" d="M838.12,-440.12C838.12,-440.12 697.62,-440.12 697.62,-440.12 691.62,-440.12 685.62,-434.12 685.62,-428.12 685.62,-428.12 685.62,-406.62 685.62,-406.62 685.62,-400.62 691.62,-394.62 697.62,-394.62 697.62,-394.62 838.12,-394.62 838.12,-394.62 844.12,-394.62 850.12,-400.62 850.12,-406.62 850.12,-406.62 850.12,-428.12 850.12,-428.12 850.12,-434.12 844.12,-440.12 838.12,-440.12"/>
<text text-anchor="middle" x="767.88" y="-422.82" font-family="Microsoft YaHei" font-size="14.00">登录：校验用户名/密码</text>
<text text-anchor="middle" x="767.88" y="-404.07" font-family="Microsoft YaHei" font-size="14.00">(UserManager.login)</text>
</g>
<!-- LoginPage&#45;&gt;DoLogin -->
<g id="edge6" class="edge">
<title>LoginPage&#45;&gt;DoLogin</title>
<path fill="none" stroke="#6b6b6b" d="M497.73,-515.96C536.14,-509.57 583.71,-499.88 624.88,-486.25 657.62,-475.41 692.63,-458.88 719.82,-444.85"/>
<polygon fill="#6b6b6b" stroke="#6b6b6b" points="720.85,-447.47 726.65,-441.29 718.26,-442.51 720.85,-447.47"/>
<text text-anchor="middle" x="712.16" y="-472.95" font-family="Microsoft YaHei" font-size="14.00">点击「登录」</text>
</g>
<!-- DoRegister -->
<g id="node8" class="node">
<title>DoRegister</title>
<path fill="#fff6e8" stroke="#d98c00" d="M455.38,-449.5C455.38,-449.5 310.38,-449.5 310.38,-449.5 304.38,-449.5 298.38,-443.5 298.38,-437.5 298.38,-437.5 298.38,-397.25 298.38,-397.25 298.38,-391.25 304.38,-385.25 310.38,-385.25 310.38,-385.25 455.38,-385.25 455.38,-385.25 461.38,-385.25 467.38,-391.25 467.38,-397.25 467.38,-397.25 467.38,-437.5 467.38,-437.5 467.38,-443.5 461.38,-449.5 455.38,-449.5"/>
<text text-anchor="middle" x="382.88" y="-432.2" font-family="Microsoft YaHei" font-size="14.00">注册：校验长度</text>
<text text-anchor="middle" x="382.88" y="-413.45" font-family="Microsoft YaHei" font-size="14.00">(UserManager.register)</text>
<text text-anchor="middle" x="382.88" y="-394.7" font-family="Microsoft YaHei" font-size="14.00">写入 users_data</text>
</g>
<!-- LoginPage&#45;&gt;DoRegister -->
<g id="edge13" class="edge">
<title>LoginPage&#45;&gt;DoRegister</title>
<path fill="none" stroke="#6b6b6b" d="M364.22,-503.83C357.54,-499.02 351.63,-493.22 347.38,-486.25 341.91,-477.3 343.18,-467.42 347.56,-458.03"/>
<polygon fill="#6b6b6b" stroke="#6b6b6b" points="349.88,-459.61 351.37,-451.26 345,-456.86 349.88,-459.61"/>
<text text-anchor="middle" x="418.62" y="-472.95" font-family="Microsoft YaHei" font-size="14.00">切换到「注册」并提交</text>
</g>
<!-- WriteLoginInfo -->
<g id="node9" class="node">
<title>WriteLoginInfo</title>
<path fill="#e8f2ff" stroke="#2f6fed" d="M920.38,-330.5C920.38,-330.5 727.38,-330.5 727.38,-330.5 721.38,-330.5 715.38,-324.5 715.38,-318.5 715.38,-318.5 715.38,-278.25 715.38,-278.25 715.38,-272.25 721.38,-266.25 727.38,-266.25 727.38,-266.25 920.38,-266.25 920.38,-266.25 926.38,-266.25 932.38,-272.25 932.38,-278.25 932.38,-278.25 932.38,-318.5 932.38,-318.5 932.38,-324.5 926.38,-330.5 920.38,-330.5"/>
<text text-anchor="middle" x="823.88" y="-313.2" font-family="Microsoft YaHei" font-size="14.00">写入 login_info</text>
<text text-anchor="middle" x="823.88" y="-294.45" font-family="Microsoft YaHei" font-size="14.00">{isLoggedIn:true, currentUser}</text>
<text text-anchor="middle" x="823.88" y="-275.7" font-family="Microsoft YaHei" font-size="14.00">Preferences.flush()</text>
</g>
<!-- DoLogin&#45;&gt;WriteLoginInfo -->
<g id="edge7" class="edge">
<title>DoLogin&#45;&gt;WriteLoginInfo</title>
<path fill="none" stroke="#6b6b6b" d="M778.41,-394.37C785.85,-378.82 796.03,-357.56 804.87,-339.09"/>
<polygon fill="#6b6b6b" stroke="#6b6b6b" points="807.37,-340.35 808.3,-331.92 802.32,-337.93 807.37,-340.35"/>
<text text-anchor="middle" x="827.73" y="-353.95" font-family="Microsoft YaHei" font-size="14.00">校验通过</text>
</g>
<!-- LoginFail -->
<g id="node12" class="node">
<title>LoginFail</title>
<path fill="#ffe8e8" stroke="#d92f2f" d="M685.62,-321.12C685.62,-321.12 536.12,-321.12 536.12,-321.12 530.12,-321.12 524.12,-315.12 524.12,-309.12 524.12,-309.12 524.12,-287.62 524.12,-287.62 524.12,-281.62 530.12,-275.62 536.12,-275.62 536.12,-275.62 685.62,-275.62 685.62,-275.62 691.62,-275.62 697.62,-281.62 697.62,-287.62 697.62,-287.62 697.62,-309.12 697.62,-309.12 697.62,-315.12 691.62,-321.12 685.62,-321.12"/>
<text text-anchor="middle" x="610.88" y="-303.82" font-family="Microsoft YaHei" font-size="14.00">失败：Toast 提示</text>
<text text-anchor="middle" x="610.88" y="-285.07" font-family="Microsoft YaHei" font-size="14.00">(用户名不存在/密码错误)</text>
</g>
<!-- DoLogin&#45;&gt;LoginFail -->
<g id="edge8" class="edge">
<title>DoLogin&#45;&gt;LoginFail</title>
<path fill="none" stroke="#6b6b6b" d="M738.34,-394.37C712.77,-375.31 675.65,-347.64 648.05,-327.08"/>
<polygon fill="#6b6b6b" stroke="#6b6b6b" points="649.84,-324.92 641.75,-322.39 646.49,-329.41 649.84,-324.92"/>
<text text-anchor="middle" x="727.27" y="-353.95" font-family="Microsoft YaHei" font-size="14.00">校验失败</text>
</g>
<!-- RegisterOK -->
<g id="node13" class="node">
<title>RegisterOK</title>
<path fill="#eaf7ea" stroke="#1e8e3e" d="M288.12,-321.12C288.12,-321.12 153.62,-321.12 153.62,-321.12 147.62,-321.12 141.62,-315.12 141.62,-309.12 141.62,-309.12 141.62,-287.62 141.62,-287.62 141.62,-281.62 147.62,-275.62 153.62,-275.62 153.62,-275.62 288.12,-275.62 288.12,-275.62 294.12,-275.62 300.12,-281.62 300.12,-287.62 300.12,-287.62 300.12,-309.12 300.12,-309.12 300.12,-315.12 294.12,-321.12 288.12,-321.12"/>
<text text-anchor="middle" x="220.88" y="-303.82" font-family="Microsoft YaHei" font-size="14.00">注册成功：Toast 提示</text>
<text text-anchor="middle" x="220.88" y="-285.07" font-family="Microsoft YaHei" font-size="14.00">可返回登录或直接登录</text>
</g>
<!-- DoRegister&#45;&gt;RegisterOK -->
<g id="edge14" class="edge">
<title>DoRegister&#45;&gt;RegisterOK</title>
<path fill="none" stroke="#6b6b6b" d="M339.46,-385.02C314.43,-366.94 283.24,-344.42 259.13,-327.01"/>
<polygon fill="#6b6b6b" stroke="#6b6b6b" points="260.92,-324.85 252.8,-322.43 257.65,-329.39 260.92,-324.85"/>
<text text-anchor="middle" x="325.82" y="-353.95" font-family="Microsoft YaHei" font-size="14.00">成功</text>
</g>
<!-- RegisterFail -->
<g id="node14" class="node">
<title>RegisterFail</title>
<path fill="#ffe8e8" stroke="#d92f2f" d="M493.75,-321.12C493.75,-321.12 330,-321.12 330,-321.12 324,-321.12 318,-315.12 318,-309.12 318,-309.12 318,-287.62 318,-287.62 318,-281.62 324,-275.62 330,-275.62 330,-275.62 493.75,-275.62 493.75,-275.62 499.75,-275.62 505.75,-281.62 505.75,-287.62 505.75,-287.62 505.75,-309.12 505.75,-309.12 505.75,-315.12 499.75,-321.12 493.75,-321.12"/>
<text text-anchor="middle" x="411.88" y="-303.82" font-family="Microsoft YaHei" font-size="14.00">注册失败：Toast 提示</text>
<text text-anchor="middle" x="411.88" y="-285.07" font-family="Microsoft YaHei" font-size="14.00">(用户名已存在/格式不合法)</text>
</g>
<!-- DoRegister&#45;&gt;RegisterFail -->
<g id="edge15" class="edge">
<title>DoRegister&#45;&gt;RegisterFail</title>
<path fill="none" stroke="#6b6b6b" d="M390.65,-385.02C394.84,-368.12 399.99,-347.32 404.17,-330.46"/>
<polygon fill="#6b6b6b" stroke="#6b6b6b" points="406.81,-331.45 406.02,-323.01 401.37,-330.11 406.81,-331.45"/>
<text text-anchor="middle" x="413.36" y="-353.95" font-family="Microsoft YaHei" font-size="14.00">失败</text>
</g>
<!-- InitUserData -->
<g id="node10" class="node">
<title>InitUserData</title>
<path fill="#e8f2ff" stroke="#2f6fed" d="M840.75,-229.25C840.75,-229.25 665,-229.25 665,-229.25 659,-229.25 653,-223.25 653,-217.25 653,-217.25 653,-177 653,-177 653,-171 659,-165 665,-165 665,-165 840.75,-165 840.75,-165 846.75,-165 852.75,-171 852.75,-177 852.75,-177 852.75,-217.25 852.75,-217.25 852.75,-223.25 846.75,-229.25 840.75,-229.25"/>
<text text-anchor="middle" x="752.88" y="-211.95" font-family="Microsoft YaHei" font-size="14.00">FoodStore.init(username)</text>
<text text-anchor="middle" x="752.88" y="-193.2" font-family="Microsoft YaHei" font-size="14.00">加载 foods/history/settings</text>
<text text-anchor="middle" x="752.88" y="-174.45" font-family="Microsoft YaHei" font-size="14.00">或初始化默认数据</text>
</g>
<!-- WriteLoginInfo&#45;&gt;InitUserData -->
<g id="edge10" class="edge">
<title>WriteLoginInfo&#45;&gt;InitUserData</title>
<path fill="none" stroke="#6b6b6b" d="M801.41,-265.97C794.87,-256.83 787.65,-246.73 780.81,-237.18"/>
<polygon fill="#6b6b6b" stroke="#6b6b6b" points="783.25,-235.77 776.32,-230.9 778.7,-239.03 783.25,-235.77"/>
</g>
<!-- BackHome -->
<g id="node11" class="node">
<title>BackHome</title>
<path fill="#e8f2ff" stroke="#2f6fed" d="M499.62,-128C499.62,-128 296.12,-128 296.12,-128 290.12,-128 284.12,-122 284.12,-116 284.12,-116 284.12,-94.5 284.12,-94.5 284.12,-88.5 290.12,-82.5 296.12,-82.5 296.12,-82.5 499.62,-82.5 499.62,-82.5 505.62,-82.5 511.62,-88.5 511.62,-94.5 511.62,-94.5 511.62,-116 511.62,-116 511.62,-122 505.62,-128 499.62,-128"/>
<text text-anchor="middle" x="397.88" y="-110.7" font-family="Microsoft YaHei" font-size="14.00">router.replaceUrl(&#39;pages/Index&#39;)</text>
<text text-anchor="middle" x="397.88" y="-91.95" font-family="Microsoft YaHei" font-size="14.00">回到主页</text>
</g>
<!-- InitUserData&#45;&gt;BackHome -->
<g id="edge11" class="edge">
<title>InitUserData&#45;&gt;BackHome</title>
<path fill="none" stroke="#6b6b6b" d="M652.57,-170.73C603.06,-158.2 543.6,-143.14 494.59,-130.73"/>
<polygon fill="#6b6b6b" stroke="#6b6b6b" points="495.47,-128.07 487.03,-128.82 494.1,-133.5 495.47,-128.07"/>
</g>
<!-- BackHome&#45;&gt;GoHome -->
<g id="edge12" class="edge">
<title>BackHome&#45;&gt;GoHome</title>
<path fill="none" stroke="#6b6b6b" d="M322.83,-82.04C287.75,-71.66 245.85,-59.26 209.73,-48.57"/>
<polygon fill="#6b6b6b" stroke="#6b6b6b" points="210.59,-45.9 202.13,-46.32 209,-51.27 210.59,-45.9"/>
</g>
<!-- LoginFail&#45;&gt;LoginPage -->
<g id="edge9" class="edge">
<title>LoginFail&#45;&gt;LoginPage</title>
<path fill="none" stroke="#6b6b6b" stroke-dasharray="5,2" d="M608.8,-321.46C604.85,-352.84 593.79,-410.84 563.88,-449.5 546.99,-471.33 522.03,-487.78 497.9,-499.74"/>
<polygon fill="#6b6b6b" stroke="#6b6b6b" points="496.8,-497.16 490.78,-503.12 499.21,-502.21 496.8,-497.16"/>
<text text-anchor="middle" x="623.58" y="-413.45" font-family="Microsoft YaHei" font-size="14.00">继续尝试</text>
</g>
<!-- RegisterOK&#45;&gt;LoginPage -->
<g id="edge17" class="edge">
<title>RegisterOK&#45;&gt;LoginPage</title>
<path fill="none" stroke="#6b6b6b" stroke-dasharray="5,2" d="M201.62,-321.48C176.91,-352.64 140.55,-410.08 169.88,-449.5 190.79,-477.61 276.38,-499.26 342.7,-512.24"/>
<polygon fill="#6b6b6b" stroke="#6b6b6b" points="342.05,-514.96 350.43,-513.73 343.1,-509.46 342.05,-514.96"/>
<text text-anchor="middle" x="229.88" y="-413.45" font-family="Microsoft YaHei" font-size="14.00">返回登录/自动填充</text>
</g>
<!-- RegisterFail&#45;&gt;LoginPage -->
<g id="edge16" class="edge">
<title>RegisterFail&#45;&gt;LoginPage</title>
<path fill="none" stroke="#6b6b6b" stroke-dasharray="5,2" d="M433.5,-321.46C448.15,-337.74 466.62,-361.16 476.88,-385.25 491.37,-419.3 486.98,-430.6 489.88,-467.5 490.53,-475.81 493.95,-478.98 489.88,-486.25 487.51,-490.47 484.49,-494.29 481.06,-497.75"/>
<polygon fill="#6b6b6b" stroke="#6b6b6b" points="479.31,-495.57 475.15,-502.95 483,-499.77 479.31,-495.57"/>
<text text-anchor="middle" x="524.46" y="-413.45" font-family="Microsoft YaHei" font-size="14.00">修改后重试</text>
</g>
</g>
</svg>
